<svg id="Layer_1" data-name="Layer 1" xmlns="http://www.w3.org/2000/svg" viewBox="0 0 1517 957.5"><defs><style>.cls-1{fill:#fff;}</style></defs><title>Torii</title><rect class="cls-1" x="208.5" y="38.5" width="1100" height="50"/><rect class="cls-1" x="208.5" y="105.5" width="1100" height="15"/><path class="cls-1" d="M400,133a435.68,435.68,0,0,1-112.5-13.5,429.08,429.08,0,0,1-96-37l18-38a502.3,502.3,0,0,0,97,29A512.59,512.59,0,0,0,400,83Z" transform="translate(-191.5 -44.5)"/><path class="cls-1" d="M1500,133a435.68,435.68,0,0,0,112.5-13.5,429.08,429.08,0,0,0,96-37l-18-38a502.3,502.3,0,0,1-97,29A512.59,512.59,0,0,1,1500,83Z" transform="translate(-191.5 -44.5)"/><polygon class="cls-1" points="208.5 137.5 273.5 137.5 226.5 957.5 134.5 957.5 208.5 137.5"/><polygon class="cls-1" points="1309.5 137.5 1244.5 137.5 1291.5 957.5 1383.5 957.5 1309.5 137.5"/><rect class="cls-1" x="285.5" y="137.5" width="948" height="95"/></svg>