<svg id="Layer_1" data-name="Layer 1" xmlns="http://www.w3.org/2000/svg" viewBox="0 0 1920 1021"><defs><style>.cls-1{fill:#fff;}</style></defs><title>Torii</title><rect class="cls-1" x="400" y="83" width="1100" height="50"/><rect class="cls-1" x="400" y="150" width="1100" height="15"/><path class="cls-1" d="M400,133a435.68,435.68,0,0,1-112.5-13.5,429.08,429.08,0,0,1-96-37l18-38a502.3,502.3,0,0,0,97,29A512.59,512.59,0,0,0,400,83Z"/><path class="cls-1" d="M1500,133a435.68,435.68,0,0,0,112.5-13.5,429.08,429.08,0,0,0,96-37l-18-38a502.3,502.3,0,0,1-97,29A512.59,512.59,0,0,1,1500,83Z"/><polygon class="cls-1" points="400 182 465 182 418 1002 326 1002 400 182"/><polygon class="cls-1" points="1501 182 1436 182 1483 1002 1575 1002 1501 182"/><rect class="cls-1" x="477" y="182" width="948" height="95"/></svg>